<mxfile host="Electron" agent="Mozilla/5.0 (X11; Linux x86_64) AppleWebKit/537.36 (KHTML, like Gecko) draw.io/26.0.16 Chrome/132.0.6834.196 Electron/34.2.0 Safari/537.36" version="26.0.16">
  <diagram id="C5RBs43oDa-KdzZeNtuy" name="Page-1">
    <mxGraphModel dx="2261" dy="1944" grid="1" gridSize="10" guides="1" tooltips="1" connect="1" arrows="1" fold="1" page="1" pageScale="1" pageWidth="827" pageHeight="1169" math="0" shadow="0">
      <root>
        <mxCell id="WIyWlLk6GJQsqaUBKTNV-0" />
        <mxCell id="WIyWlLk6GJQsqaUBKTNV-1" parent="WIyWlLk6GJQsqaUBKTNV-0" />
        <mxCell id="jgtN1q6R72p-Jlgtg6lF-0" value="Cromosomal scores" style="swimlane;whiteSpace=wrap;html=1;fillColor=#cce5ff;strokeColor=#36393d;fillStyle=solid;" parent="WIyWlLk6GJQsqaUBKTNV-1" vertex="1">
          <mxGeometry x="-800" y="60" width="1778" height="1250" as="geometry" />
        </mxCell>
        <mxCell id="jgtN1q6R72p-Jlgtg6lF-1" value="No regulatory genes" style="swimlane;whiteSpace=wrap;html=1;fillColor=#cce5ff;strokeColor=#36393d;fillStyle=hatch;" parent="jgtN1q6R72p-Jlgtg6lF-0" vertex="1">
          <mxGeometry x="40" y="181" width="930" height="1040" as="geometry" />
        </mxCell>
        <mxCell id="hHSMLHifavFTPqrbUgCw-28" style="edgeStyle=orthogonalEdgeStyle;rounded=0;orthogonalLoop=1;jettySize=auto;html=1;exitX=0.5;exitY=1;exitDx=0;exitDy=0;entryX=0.5;entryY=0;entryDx=0;entryDy=0;" edge="1" parent="jgtN1q6R72p-Jlgtg6lF-1" source="hHSMLHifavFTPqrbUgCw-26">
          <mxGeometry relative="1" as="geometry">
            <mxPoint x="542" y="120" as="targetPoint" />
          </mxGeometry>
        </mxCell>
        <mxCell id="hHSMLHifavFTPqrbUgCw-26" value="Evaluate condition by ATB and mutation" style="rounded=1;whiteSpace=wrap;html=1;fontSize=12;glass=0;strokeWidth=1;shadow=0;" vertex="1" parent="jgtN1q6R72p-Jlgtg6lF-1">
          <mxGeometry x="482" y="40" width="120" height="40" as="geometry" />
        </mxCell>
        <mxCell id="hHSMLHifavFTPqrbUgCw-29" value="parameters" style="swimlane;whiteSpace=wrap;html=1;" vertex="1" parent="jgtN1q6R72p-Jlgtg6lF-1">
          <mxGeometry x="612" y="40" width="120" height="81" as="geometry" />
        </mxCell>
        <mxCell id="hHSMLHifavFTPqrbUgCw-30" value="&lt;ul&gt;&lt;li&gt;&#39;mut_type&#39;&lt;/li&gt;&lt;li&gt;&#39;eff&#39;&lt;/li&gt;&lt;li&gt;&#39;reg_result&#39;&lt;/li&gt;&lt;/ul&gt;" style="text;strokeColor=none;fillColor=none;align=left;verticalAlign=middle;spacingLeft=-17;spacingRight=4;overflow=hidden;points=[[0,0.5],[1,0.5]];portConstraint=eastwest;rotatable=0;whiteSpace=wrap;html=1;spacing=2;spacingTop=-6;" vertex="1" parent="hHSMLHifavFTPqrbUgCw-29">
          <mxGeometry y="23" width="120" height="58" as="geometry" />
        </mxCell>
        <mxCell id="hHSMLHifavFTPqrbUgCw-33" style="edgeStyle=orthogonalEdgeStyle;rounded=0;orthogonalLoop=1;jettySize=auto;html=1;exitX=0;exitY=0.5;exitDx=0;exitDy=0;entryX=0.5;entryY=0;entryDx=0;entryDy=0;" edge="1" parent="jgtN1q6R72p-Jlgtg6lF-1" source="hHSMLHifavFTPqrbUgCw-31" target="hHSMLHifavFTPqrbUgCw-38">
          <mxGeometry relative="1" as="geometry">
            <mxPoint x="426" y="240" as="targetPoint" />
          </mxGeometry>
        </mxCell>
        <mxCell id="hHSMLHifavFTPqrbUgCw-34" value="LOF" style="edgeLabel;html=1;align=center;verticalAlign=middle;resizable=0;points=[];" vertex="1" connectable="0" parent="hHSMLHifavFTPqrbUgCw-33">
          <mxGeometry x="-0.4581" relative="1" as="geometry">
            <mxPoint x="-89" y="40" as="offset" />
          </mxGeometry>
        </mxCell>
        <mxCell id="hHSMLHifavFTPqrbUgCw-51" style="edgeStyle=orthogonalEdgeStyle;rounded=0;orthogonalLoop=1;jettySize=auto;html=1;exitX=0.5;exitY=1;exitDx=0;exitDy=0;entryX=0.5;entryY=0;entryDx=0;entryDy=0;" edge="1" parent="jgtN1q6R72p-Jlgtg6lF-1" source="hHSMLHifavFTPqrbUgCw-31" target="hHSMLHifavFTPqrbUgCw-50">
          <mxGeometry relative="1" as="geometry" />
        </mxCell>
        <mxCell id="hHSMLHifavFTPqrbUgCw-54" value="LOFN" style="edgeLabel;html=1;align=center;verticalAlign=middle;resizable=0;points=[];" vertex="1" connectable="0" parent="hHSMLHifavFTPqrbUgCw-51">
          <mxGeometry x="-0.5599" y="-1" relative="1" as="geometry">
            <mxPoint as="offset" />
          </mxGeometry>
        </mxCell>
        <mxCell id="hHSMLHifavFTPqrbUgCw-31" value="&#39;mut_type&#39;" style="rhombus;whiteSpace=wrap;html=1;" vertex="1" parent="jgtN1q6R72p-Jlgtg6lF-1">
          <mxGeometry x="502" y="121" width="80" height="80" as="geometry" />
        </mxCell>
        <mxCell id="hHSMLHifavFTPqrbUgCw-36" style="edgeStyle=orthogonalEdgeStyle;rounded=0;orthogonalLoop=1;jettySize=auto;html=1;exitX=1;exitY=0.5;exitDx=0;exitDy=0;entryX=0.5;entryY=0;entryDx=0;entryDy=0;" edge="1" parent="jgtN1q6R72p-Jlgtg6lF-1" source="hHSMLHifavFTPqrbUgCw-31" target="hHSMLHifavFTPqrbUgCw-40">
          <mxGeometry relative="1" as="geometry">
            <mxPoint x="671" y="240" as="targetPoint" />
          </mxGeometry>
        </mxCell>
        <mxCell id="hHSMLHifavFTPqrbUgCw-37" value="GOF/GOFO" style="edgeLabel;html=1;align=center;verticalAlign=middle;resizable=0;points=[];" vertex="1" connectable="0" parent="hHSMLHifavFTPqrbUgCw-36">
          <mxGeometry x="-0.6241" relative="1" as="geometry">
            <mxPoint x="146" y="40" as="offset" />
          </mxGeometry>
        </mxCell>
        <mxCell id="hHSMLHifavFTPqrbUgCw-57" style="edgeStyle=orthogonalEdgeStyle;rounded=0;orthogonalLoop=1;jettySize=auto;html=1;exitX=0.5;exitY=1;exitDx=0;exitDy=0;entryX=0.5;entryY=0;entryDx=0;entryDy=0;" edge="1" parent="jgtN1q6R72p-Jlgtg6lF-1" source="hHSMLHifavFTPqrbUgCw-38" target="hHSMLHifavFTPqrbUgCw-42">
          <mxGeometry relative="1" as="geometry" />
        </mxCell>
        <mxCell id="hHSMLHifavFTPqrbUgCw-58" value="SNP" style="edgeLabel;html=1;align=center;verticalAlign=middle;resizable=0;points=[];" vertex="1" connectable="0" parent="hHSMLHifavFTPqrbUgCw-57">
          <mxGeometry x="-0.2364" y="3" relative="1" as="geometry">
            <mxPoint as="offset" />
          </mxGeometry>
        </mxCell>
        <mxCell id="hHSMLHifavFTPqrbUgCw-59" style="edgeStyle=orthogonalEdgeStyle;rounded=0;orthogonalLoop=1;jettySize=auto;html=1;exitX=0;exitY=0.5;exitDx=0;exitDy=0;entryX=0.5;entryY=0;entryDx=0;entryDy=0;" edge="1" parent="jgtN1q6R72p-Jlgtg6lF-1" source="hHSMLHifavFTPqrbUgCw-38" target="hHSMLHifavFTPqrbUgCw-41">
          <mxGeometry relative="1" as="geometry" />
        </mxCell>
        <mxCell id="hHSMLHifavFTPqrbUgCw-60" value="LOF" style="edgeLabel;html=1;align=center;verticalAlign=middle;resizable=0;points=[];" vertex="1" connectable="0" parent="hHSMLHifavFTPqrbUgCw-59">
          <mxGeometry x="-0.1667" y="2" relative="1" as="geometry">
            <mxPoint x="26" y="-2" as="offset" />
          </mxGeometry>
        </mxCell>
        <mxCell id="hHSMLHifavFTPqrbUgCw-61" style="edgeStyle=orthogonalEdgeStyle;rounded=0;orthogonalLoop=1;jettySize=auto;html=1;exitX=1;exitY=0.5;exitDx=0;exitDy=0;entryX=0.5;entryY=0;entryDx=0;entryDy=0;" edge="1" parent="jgtN1q6R72p-Jlgtg6lF-1" source="hHSMLHifavFTPqrbUgCw-38" target="hHSMLHifavFTPqrbUgCw-43">
          <mxGeometry relative="1" as="geometry" />
        </mxCell>
        <mxCell id="hHSMLHifavFTPqrbUgCw-62" value="ELSE" style="edgeLabel;html=1;align=center;verticalAlign=middle;resizable=0;points=[];" vertex="1" connectable="0" parent="hHSMLHifavFTPqrbUgCw-61">
          <mxGeometry x="-0.6485" y="-4" relative="1" as="geometry">
            <mxPoint x="16" y="-4" as="offset" />
          </mxGeometry>
        </mxCell>
        <mxCell id="hHSMLHifavFTPqrbUgCw-38" value="&#39;evaluate_LOF&#39;" style="rhombus;whiteSpace=wrap;html=1;" vertex="1" parent="jgtN1q6R72p-Jlgtg6lF-1">
          <mxGeometry x="209" y="240" width="96" height="90" as="geometry" />
        </mxCell>
        <mxCell id="hHSMLHifavFTPqrbUgCw-40" value="&#39;evaluate_GOF&#39;" style="rhombus;whiteSpace=wrap;html=1;" vertex="1" parent="jgtN1q6R72p-Jlgtg6lF-1">
          <mxGeometry x="732" y="240" width="96" height="90" as="geometry" />
        </mxCell>
        <mxCell id="hHSMLHifavFTPqrbUgCw-41" value="&#39;reg_eval&#39; = 0&lt;div&gt;&#39;value&#39; = 0&lt;/div&gt;" style="rounded=1;whiteSpace=wrap;html=1;fontSize=12;glass=0;strokeWidth=1;shadow=0;" vertex="1" parent="jgtN1q6R72p-Jlgtg6lF-1">
          <mxGeometry x="20" y="360" width="210" height="40" as="geometry" />
        </mxCell>
        <mxCell id="hHSMLHifavFTPqrbUgCw-42" value="&#39;reg_eval&#39; = 1&lt;div&gt;&#39;value&#39; = &#39;eff&#39;*condition[&#39;simple_value&#39;]&lt;/div&gt;" style="rounded=1;whiteSpace=wrap;html=1;fontSize=12;glass=0;strokeWidth=1;shadow=0;" vertex="1" parent="jgtN1q6R72p-Jlgtg6lF-1">
          <mxGeometry x="152" y="440" width="210" height="40" as="geometry" />
        </mxCell>
        <mxCell id="hHSMLHifavFTPqrbUgCw-43" value="&#39;reg_eval&#39; = 1&lt;div&gt;&#39;value&#39; = &#39;eff&#39;*condition[&#39;doble_value&#39;]&lt;/div&gt;" style="rounded=1;whiteSpace=wrap;html=1;fontSize=12;glass=0;strokeWidth=1;shadow=0;" vertex="1" parent="jgtN1q6R72p-Jlgtg6lF-1">
          <mxGeometry x="290" y="360" width="210" height="40" as="geometry" />
        </mxCell>
        <mxCell id="hHSMLHifavFTPqrbUgCw-50" value="&#39;evaluate_LOF&#39;N" style="rhombus;whiteSpace=wrap;html=1;" vertex="1" parent="jgtN1q6R72p-Jlgtg6lF-1">
          <mxGeometry x="487.5" y="560" width="109" height="100" as="geometry" />
        </mxCell>
        <mxCell id="jgtN1q6R72p-Jlgtg6lF-2" value="Regulatory genes" style="swimlane;whiteSpace=wrap;html=1;" parent="jgtN1q6R72p-Jlgtg6lF-0" vertex="1">
          <mxGeometry x="1060" y="181" width="689" height="430" as="geometry" />
        </mxCell>
        <mxCell id="hHSMLHifavFTPqrbUgCw-16" style="edgeStyle=orthogonalEdgeStyle;rounded=0;orthogonalLoop=1;jettySize=auto;html=1;exitX=1;exitY=0.5;exitDx=0;exitDy=0;entryX=0;entryY=0.5;entryDx=0;entryDy=0;" edge="1" parent="jgtN1q6R72p-Jlgtg6lF-0" source="hHSMLHifavFTPqrbUgCw-8" target="hHSMLHifavFTPqrbUgCw-14">
          <mxGeometry relative="1" as="geometry" />
        </mxCell>
        <mxCell id="hHSMLHifavFTPqrbUgCw-8" value="Evaluate &#39;conditions&#39; of locus i (&#39;gene&#39;) in &#39;scores_json&#39;" style="rounded=1;whiteSpace=wrap;html=1;fontSize=12;glass=0;strokeWidth=1;shadow=0;" vertex="1" parent="jgtN1q6R72p-Jlgtg6lF-0">
          <mxGeometry x="696" y="41" width="180" height="40" as="geometry" />
        </mxCell>
        <mxCell id="hHSMLHifavFTPqrbUgCw-18" style="edgeStyle=orthogonalEdgeStyle;rounded=0;orthogonalLoop=1;jettySize=auto;html=1;exitX=0.5;exitY=1;exitDx=0;exitDy=0;entryX=0.5;entryY=0;entryDx=0;entryDy=0;" edge="1" parent="jgtN1q6R72p-Jlgtg6lF-0" source="hHSMLHifavFTPqrbUgCw-14" target="hHSMLHifavFTPqrbUgCw-17">
          <mxGeometry relative="1" as="geometry" />
        </mxCell>
        <mxCell id="hHSMLHifavFTPqrbUgCw-14" value="Evaluate antibiotic &#39;ab&#39;&amp;nbsp;in &#39;conditions&#39;" style="rounded=1;whiteSpace=wrap;html=1;fontSize=12;glass=0;strokeWidth=1;shadow=0;" vertex="1" parent="jgtN1q6R72p-Jlgtg6lF-0">
          <mxGeometry x="926" y="41" width="180" height="40" as="geometry" />
        </mxCell>
        <mxCell id="hHSMLHifavFTPqrbUgCw-19" style="edgeStyle=orthogonalEdgeStyle;rounded=0;orthogonalLoop=1;jettySize=auto;html=1;exitX=0;exitY=0.5;exitDx=0;exitDy=0;entryX=0.5;entryY=0;entryDx=0;entryDy=0;" edge="1" parent="jgtN1q6R72p-Jlgtg6lF-0" target="hHSMLHifavFTPqrbUgCw-26">
          <mxGeometry relative="1" as="geometry">
            <mxPoint x="996" y="141" as="sourcePoint" />
          </mxGeometry>
        </mxCell>
        <mxCell id="hHSMLHifavFTPqrbUgCw-21" value="NO" style="edgeLabel;html=1;align=center;verticalAlign=middle;resizable=0;points=[];" vertex="1" connectable="0" parent="hHSMLHifavFTPqrbUgCw-19">
          <mxGeometry x="0.3433" relative="1" as="geometry">
            <mxPoint x="105" as="offset" />
          </mxGeometry>
        </mxCell>
        <mxCell id="hHSMLHifavFTPqrbUgCw-55" style="edgeStyle=orthogonalEdgeStyle;rounded=0;orthogonalLoop=1;jettySize=auto;html=1;exitX=1;exitY=0.5;exitDx=0;exitDy=0;entryX=0.5;entryY=0;entryDx=0;entryDy=0;" edge="1" parent="jgtN1q6R72p-Jlgtg6lF-0" source="hHSMLHifavFTPqrbUgCw-17" target="jgtN1q6R72p-Jlgtg6lF-2">
          <mxGeometry relative="1" as="geometry" />
        </mxCell>
        <mxCell id="hHSMLHifavFTPqrbUgCw-56" value="YES" style="edgeLabel;html=1;align=center;verticalAlign=middle;resizable=0;points=[];" vertex="1" connectable="0" parent="hHSMLHifavFTPqrbUgCw-55">
          <mxGeometry x="0.0068" y="-2" relative="1" as="geometry">
            <mxPoint x="-41" y="-2" as="offset" />
          </mxGeometry>
        </mxCell>
        <mxCell id="hHSMLHifavFTPqrbUgCw-17" value="&#39;regulators&#39;" style="rhombus;whiteSpace=wrap;html=1;" vertex="1" parent="jgtN1q6R72p-Jlgtg6lF-0">
          <mxGeometry x="976" y="101" width="80" height="80" as="geometry" />
        </mxCell>
        <mxCell id="hHSMLHifavFTPqrbUgCw-6" style="edgeStyle=orthogonalEdgeStyle;rounded=0;orthogonalLoop=1;jettySize=auto;html=1;exitX=0.5;exitY=1;exitDx=0;exitDy=0;" edge="1" parent="WIyWlLk6GJQsqaUBKTNV-1" source="hHSMLHifavFTPqrbUgCw-3" target="hHSMLHifavFTPqrbUgCw-0">
          <mxGeometry relative="1" as="geometry" />
        </mxCell>
        <mxCell id="hHSMLHifavFTPqrbUgCw-3" value="Read input files" style="ellipse;whiteSpace=wrap;html=1;" vertex="1" parent="WIyWlLk6GJQsqaUBKTNV-1">
          <mxGeometry x="156" y="-110" width="120" height="60" as="geometry" />
        </mxCell>
        <mxCell id="hHSMLHifavFTPqrbUgCw-4" value="Input files" style="swimlane;whiteSpace=wrap;html=1;" vertex="1" parent="WIyWlLk6GJQsqaUBKTNV-1">
          <mxGeometry x="320" y="-120" width="340" height="80" as="geometry" />
        </mxCell>
        <mxCell id="hHSMLHifavFTPqrbUgCw-5" value="&lt;ul&gt;&lt;li&gt;&#39;scores_json&#39;: JSON file with relevant loci information&lt;/li&gt;&lt;li&gt;gene_records: Annotated variant calling file with strain annotated information&lt;/li&gt;&lt;/ul&gt;" style="text;strokeColor=none;fillColor=none;align=left;verticalAlign=middle;spacingLeft=-17;spacingRight=4;overflow=hidden;points=[[0,0.5],[1,0.5]];portConstraint=eastwest;rotatable=0;whiteSpace=wrap;html=1;spacing=2;spacingTop=-6;" vertex="1" parent="hHSMLHifavFTPqrbUgCw-4">
          <mxGeometry y="23" width="334" height="58" as="geometry" />
        </mxCell>
        <mxCell id="hHSMLHifavFTPqrbUgCw-63" style="edgeStyle=orthogonalEdgeStyle;rounded=0;orthogonalLoop=1;jettySize=auto;html=1;exitX=0.5;exitY=1;exitDx=0;exitDy=0;entryX=0.5;entryY=0;entryDx=0;entryDy=0;" edge="1" parent="WIyWlLk6GJQsqaUBKTNV-1" source="hHSMLHifavFTPqrbUgCw-0" target="hHSMLHifavFTPqrbUgCw-14">
          <mxGeometry relative="1" as="geometry" />
        </mxCell>
        <mxCell id="hHSMLHifavFTPqrbUgCw-0" value="Main function" style="rounded=1;whiteSpace=wrap;html=1;fontSize=12;glass=0;strokeWidth=1;shadow=0;" vertex="1" parent="WIyWlLk6GJQsqaUBKTNV-1">
          <mxGeometry x="156" y="10" width="120" height="40" as="geometry" />
        </mxCell>
      </root>
    </mxGraphModel>
  </diagram>
</mxfile>
